# Blender 4.0.2
# www.blender.org
mtllib Stones.mtl
o Sphere
v -0.518842 0.761167 -0.872172
v -1.234598 0.025981 -0.094028
v 0.171500 1.382263 0.493881
v -0.658928 0.752779 -0.830606
v -0.737262 0.691925 -0.788158
v -1.371799 0.573347 -0.102180
v -0.786385 1.432755 -0.049621
v -0.805988 1.423646 -0.033405
v 1.067418 1.291025 -0.323195
v 0.864883 1.615039 0.066304
v 0.415177 1.683079 -0.213354
v 0.824655 1.640556 0.075425
v 0.331829 0.995496 -0.926370
v 0.659453 1.231525 -0.789684
v 1.067665 1.157971 -0.556752
v 0.699722 0.269476 0.661305
v -0.008839 0.448174 0.956232
v 0.666580 0.293043 0.693238
v 0.096590 0.423959 0.915180
v 1.268049 0.604194 -0.143750
v 1.146282 0.651707 0.317989
v 0.706241 0.272278 0.659798
v 0.722900 0.294411 0.665559
v 0.701472 0.264906 0.655652
v -0.052807 0.476969 0.965837
v -0.139920 0.711697 0.913445
v -1.336427 0.898683 0.150864
v -1.372747 0.822333 0.126555
v -0.063209 0.445006 0.958732
v -0.300640 0.014179 -0.677010
v -1.222284 0.019053 -0.104819
v -1.230151 0.019297 -0.083448
v -0.799143 0.014702 -0.539482
v -0.269621 0.028544 0.485882
v 0.596928 0.029355 0.386801
v -0.713900 0.028128 0.536682
v -1.139228 0.023788 0.264601
v 0.456198 0.249114 -0.732082
v 1.250870 0.552400 -0.354683
v 1.263305 0.531465 -0.305309
v 0.740213 0.024524 -0.033567
v 0.155081 0.015285 -0.673814
vn 0.0023 -0.9999 0.0123
vn 0.4953 -0.7479 -0.4419
vn 0.4227 -0.6363 0.6453
vn 0.0583 -0.2347 0.9703
vn -0.6787 0.4955 -0.5421
vn -0.6169 -0.7561 -0.2184
vn -0.5387 -0.0119 0.8424
vn -0.9404 -0.2320 0.2487
vn -0.1463 0.9275 0.3441
vn 0.4020 0.7957 -0.4530
vn -0.2384 0.7129 -0.6596
vn 0.4698 -0.1482 -0.8702
vn 0.3925 -0.4969 0.7740
vn 0.9224 0.3243 0.2099
vn 0.9598 0.2443 -0.1381
vn 0.0740 -0.7642 0.6408
vn -0.3565 0.6089 0.7086
vn 0.4080 0.3405 0.8471
vn 0.7382 -0.6230 0.2588
vn -0.7049 -0.1869 -0.6843
vn -0.2529 -0.3130 -0.9155
vn 0.0074 -0.2507 -0.9680
vt 0.658260 0.500258
vt 0.538951 0.615863
vt 0.464986 0.579253
vt 0.442256 0.392982
vt 0.423205 0.281267
vt 0.448435 0.160364
vt 0.608935 0.129806
vt 0.615517 0.133806
vt 0.682867 0.285472
vt 0.676640 0.404714
vt 0.682713 0.577335
vt 0.624887 0.792094
vt 0.609730 0.793237
vt 0.407518 0.611948
vt 0.406250 0.613354
vt 0.406250 0.611765
vt 0.331089 0.458164
vt 0.332808 0.469623
vt 0.326349 0.462043
vt 0.123803 0.158288
vt 0.063065 0.178848
vt 0.037592 0.369678
vt 0.049166 0.374575
vt 0.825677 0.370844
vt 0.817546 0.349113
vt 0.889970 0.135118
vt 0.614007 0.128963
vt 0.277980 0.459757
vt 0.143414 0.577114
vt 0.076013 0.745555
vt 0.465671 0.651888
vt 0.825061 0.790953
vt 0.815031 0.684936
vt 0.084474 0.753132
vt 0.861964 0.797936
vt 0.819052 0.597947
vt 0.819745 0.402289
vt 0.403398 0.618169
vt 0.399092 0.605596
vt 0.382631 0.753132
vt 0.597576 0.797936
vt 0.343154 0.490847
s 0
usemtl Crystal
f 42/1/1 41/2/1 35/3/1 34/4/1 36/5/1 37/6/1 32/7/1 31/8/1 33/9/1 30/10/1
f 38/11/2 39/12/2 40/13/2 41/2/2 42/1/2
f 24/14/3 22/15/3 16/16/3
f 29/17/4 17/18/4 25/19/4
f 28/20/5 27/21/5 8/22/5 7/23/5 4/24/5 5/25/5 6/26/5
f 31/8/6 32/7/6 2/27/6
f 37/6/7 36/5/7 29/17/7 25/19/7 26/28/7 27/21/7 28/20/7
f 37/6/8 28/20/8 6/26/8 2/27/8 32/7/8
f 8/22/9 3/29/9 12/30/9 11/31/9 7/23/9
f 15/32/10 14/33/10 11/31/10 12/30/10 10/34/10 9/35/10
f 11/31/11 14/33/11 13/36/11 1/37/11 4/24/11 7/23/11
f 39/12/12 38/11/12 13/36/12 14/33/12 15/32/12
f 16/16/13 22/15/13 23/38/13 18/39/13
f 9/35/14 10/34/14 21/40/14 20/41/14
f 39/12/15 15/32/15 9/35/15 20/41/15 40/13/15
f 36/5/16 34/4/16 19/42/16 17/18/16 29/17/16
f 8/22/17 27/21/17 26/28/17 3/29/17
f 12/30/18 3/29/18 26/28/18 25/19/18 17/18/18 19/42/18 18/39/18 23/38/18 21/40/18 10/34/18
f 41/2/19 40/13/19 20/41/19 21/40/19 23/38/19 22/15/19 24/14/19 35/3/19
f 19/42/16 34/4/16 35/3/16 24/14/16 16/16/16 18/39/16
f 2/27/20 6/26/20 5/25/20 33/9/20 31/8/20
f 1/37/21 30/10/21 33/9/21 5/25/21 4/24/21
f 13/36/22 38/11/22 42/1/22 30/10/22 1/37/22
